<?xml version="1.0" encoding="UTF-8"?>
<svg width="20px" height="20px" viewBox="0 0 20 20" version="1.1" xmlns="http://www.w3.org/2000/svg" xmlns:xlink="http://www.w3.org/1999/xlink">
    <title>network-hotspot-dark 2</title>
    <g id="network-hotspot-dark" stroke="none" stroke-width="1" fill="none" fill-rule="evenodd">
        <path d="M3.63603897,3.63603897 L4.55527778,4.55527778 C3.16185186,5.94870371 2.3,7.87370371 2.3,10 C2.3,12.1262963 3.16185186,14.0512963 4.55527778,15.4447222 L3.63603897,16.363961 C2.00735931,14.7352814 1,12.4852814 1,10 C1,7.51471863 2.00735931,5.26471863 3.63603897,3.63603897 Z M16.363961,3.63603897 C17.9926407,5.26471863 19,7.51471863 19,10 C19,12.4847771 17.9930495,14.7343682 16.3649524,16.3629695 L15.4457085,15.4437357 C16.8385548,14.0503878 17.7,12.1257946 17.7,10 C17.7,7.87370371 16.8381481,5.94870371 15.4447222,4.55527778 L16.363961,3.63603897 Z M6.46446609,6.46446609 L7.38370491,7.38370491 C6.71413661,8.05327321 6.3,8.97827321 6.3,10 C6.3,11.0217268 6.71413661,11.9467268 7.38370491,12.6162951 L6.46446609,13.5355339 C5.55964406,12.6307119 5,11.3807119 5,10 C5,8.61928813 5.55964406,7.36928813 6.46446609,6.46446609 Z M13.5355339,6.46446609 C14.4403559,7.36928813 15,8.61928813 15,10 C15,11.3802141 14.4407594,12.6298106 13.5365123,13.5345552 L12.6162951,12.6162951 C13.2858634,11.9467268 13.7,11.0217268 13.7,10 C13.7,8.97827321 13.2858634,8.05327321 12.6162951,7.38370491 L13.5355339,6.46446609 Z M10,8 C11.1045695,8 12,8.8954305 12,10 C12,11.1045695 11.1045695,12 10,12 C8.8954305,12 8,11.1045695 8,10 C8,8.8954305 8.8954305,8 10,8 Z" id="形状结合" fill="#000000" fill-rule="nonzero"></path>
    </g>
</svg>