<?xml version="1.0" encoding="UTF-8"?>
<svg width="96px" height="96px" viewBox="0 0 96 96" version="1.1" xmlns="http://www.w3.org/2000/svg" xmlns:xlink="http://www.w3.org/1999/xlink">
    <title> apps/96/deepin-xdgicon-convert</title>
    <defs>
        <filter x="-5.3%" y="-2.9%" width="110.5%" height="110.5%" filterUnits="objectBoundingBox" id="filter-1">
            <feOffset dx="0" dy="2" in="SourceAlpha" result="shadowOffsetOuter1"></feOffset>
            <feGaussianBlur stdDeviation="2" in="shadowOffsetOuter1" result="shadowBlurOuter1"></feGaussianBlur>
            <feColorMatrix values="0 0 0 0 0   0 0 0 0 0   0 0 0 0 0  0 0 0 0.2 0" type="matrix" in="shadowBlurOuter1" result="shadowMatrixOuter1"></feColorMatrix>
            <feMerge>
                <feMergeNode in="shadowMatrixOuter1"></feMergeNode>
                <feMergeNode in="SourceGraphic"></feMergeNode>
            </feMerge>
        </filter>
        <linearGradient x1="75.6519883%" y1="43.0469294%" x2="10.7730595%" y2="57.8177946%" id="linearGradient-2">
            <stop stop-color="#07B3FF" offset="0%"></stop>
            <stop stop-color="#880AD0" offset="100%"></stop>
        </linearGradient>
    </defs>
    <g id="-apps/96/deepin-xdgicon-convert" stroke="none" fill="none" fill-rule="evenodd" stroke-width="1">
        <g id="编组" filter="url(#filter-1)" transform="translate(6.375, 6.375)">
            <path d="M18.0083112,2.625 L65.2416888,2.625 C70.5908012,2.625 72.5305187,3.18195367 74.4860742,4.22779622 C76.4416298,5.27363878 77.9763612,6.80837022 79.0222038,8.76392578 C80.0680463,10.7194813 80.625,12.6591988 80.625,18.0083112 L80.625,65.2416888 C80.625,70.5908012 80.0680463,72.5305187 79.0222038,74.4860742 C77.9763612,76.4416298 76.4416298,77.9763612 74.4860742,79.0222038 C72.5305187,80.0680463 70.5908012,80.625 65.2416888,80.625 L18.0083112,80.625 C12.6591988,80.625 10.7194813,80.0680463 8.76392578,79.0222038 C6.80837022,77.9763612 5.27363878,76.4416298 4.22779622,74.4860742 C3.18195367,72.5305187 2.625,70.5908012 2.625,65.2416888 L2.625,18.0083112 C2.625,12.6591988 3.18195367,10.7194813 4.22779622,8.76392578 C5.27363878,6.80837022 6.80837022,5.27363878 8.76392578,4.22779622 C10.7194813,3.18195367 12.6591988,2.625 18.0083112,2.625 Z" id="矩形" fill="#F1FDFF"></path>
            <path d="M24.625,70.125 L14.8298356,60.28125 L24.625,50.4375 L24.625,56.6115 L58.624,56.6115 L58.625,50.4375 L68.4201644,60.28125 L58.625,70.125 L58.624,63.6165 L24.625,63.6165 L24.625,70.125 Z" id="形状结合" fill="url(#linearGradient-2)" fill-rule="nonzero" opacity="0.85999814"></path>
            <g id="Group-2" transform="translate(15.75, 13.875)">
                <path d="M47.4375,21.75 C45.0557717,21.75 43.125,23.6807709 43.125,26.0625 C43.125,28.4442291 45.0557717,30.375 47.4375,30.375 C49.8192283,30.375 51.75,28.4442291 51.75,26.0625 C51.75,23.6807709 49.8192283,21.75 47.4375,21.75 L47.4375,21.75 Z" id="path4155" fill="#FC0000"></path>
                <path d="M38.90625,23.0625 C37.3011724,23.0625 36,24.3636717 36,25.96875 C36,27.5738283 37.3011724,28.875 38.90625,28.875 C40.5113276,28.875 41.8125,27.5738283 41.8125,25.96875 C41.8125,24.3636717 40.5113276,23.0625 38.90625,23.0625 L38.90625,23.0625 Z" id="path4153" fill="#FC0000"></path>
                <path d="M33.09375,24.5625 C32.3170999,24.5625 31.6875,25.1920992 31.6875,25.96875 C31.6875,26.7454008 32.3170999,27.375 33.09375,27.375 C33.8704001,27.375 34.5,26.7454008 34.5,25.96875 C34.5,25.1920992 33.8704001,24.5625 33.09375,24.5625 L33.09375,24.5625 Z" id="path4123" fill="#FC0000"></path>
                <path d="M42.46911,11.4533917 C40.4068173,12.6440535 39.7002236,15.2810943 40.8908893,17.3433894 C42.0815542,19.4056845 44.7185971,20.1122772 46.7808898,18.9216083 C48.8431825,17.7309465 49.5497762,15.0939057 48.3591112,13.0316106 C47.1684455,10.9693155 44.5314026,10.2627228 42.46911,11.4533917 L42.46911,11.4533917 Z" id="path4161" fill="#FF6600"></path>
                <path d="M35.5783674,17.0772843 C34.1885618,17.8796897 33.7123789,19.6568269 34.5147841,21.0466328 C35.3171885,22.4364387 37.0943267,22.912621 38.4841322,22.1102157 C39.8739385,21.3078103 40.3501207,19.5306731 39.5477163,18.1408672 C38.7453111,16.7510613 36.9681736,16.274879 35.5783674,17.0772843 L35.5783674,17.0772843 Z" id="path4159" fill="#FF6600"></path>
                <path d="M31.4532423,21.1886044 C30.7807557,21.5768614 30.5503449,22.436766 30.9386048,23.1092559 C31.3268654,23.7817457 32.1867711,24.0121564 32.8592577,23.6238924 C33.5317443,23.2356355 33.7621551,22.3757309 33.3738952,21.703241 C32.9856346,21.0307511 32.1257289,20.8003475 31.4532423,21.1886044 L31.4532423,21.1886044 Z" id="path4125" fill="#FF6600"></path>
                <path d="M32.8283893,4.96911177 C31.6377236,7.0314008 32.3443173,9.66845026 34.40661,10.8591127 C36.4689028,12.0497752 39.1059457,11.343182 40.2966107,9.28089299 C41.4872764,7.21859678 40.7806827,4.58155451 38.71839,3.39089205 C36.6560972,2.20022242 34.0190543,2.90681556 32.8283893,4.96911177 L32.8283893,4.96911177 Z" id="path4167" fill="#FFD700"></path>
                <path d="M29.8272836,13.2658672 C29.0248791,14.6556731 29.5010621,16.4328103 30.8908676,17.2352157 C32.2806731,18.037621 34.0578113,17.5614387 34.8602164,16.1716328 C35.6626209,14.7818269 35.1864379,13.0046897 33.7966324,12.2022843 C32.4068269,11.399879 30.6296887,11.8760613 29.8272836,13.2658672 L29.8272836,13.2658672 Z" id="path4165" fill="#FFD700"></path>
                <path d="M28.1261048,19.0782445 C27.7378449,19.7507277 27.9682557,20.6106328 28.6407423,20.998897 C29.3132289,21.3871542 30.1731346,21.1567433 30.5613952,20.4842601 C30.9496551,19.8117699 30.7192443,18.9518648 30.0467577,18.5636077 C29.3742711,18.1753435 28.5143654,18.4057543 28.1261048,19.0782445 L28.1261048,19.0782445 Z" id="path4127" fill="#FFD700"></path>
                <path d="M21.5625,4.3125 C21.5625,6.69422906 23.4932711,8.625 25.8749996,8.625 C28.2567282,8.625 30.1875,6.69422906 30.1875,4.3125 C30.1875,1.93077094 28.2567282,7.32747196e-14 25.8749996,7.32747196e-14 C23.4932711,7.32747196e-14 21.5625,1.93077094 21.5625,4.3125 L21.5625,4.3125 Z" id="path4173" fill="#25CC00"></path>
                <path d="M23.0625,13.03125 C23.0625,14.6363283 24.363673,15.9375 25.9687496,15.9375 C27.573827,15.9375 28.875,14.6363283 28.875,13.03125 C28.875,11.4261717 27.5738263,10.125 25.9687496,10.125 C24.363673,10.125 23.0625,11.4261717 23.0625,13.03125 L23.0625,13.03125 Z" id="path4171" fill="#25CC00"></path>
                <path d="M24.375,18.84375 C24.375,19.6204008 25.0045999,20.25 25.78125,20.25 C26.5579001,20.25 27.1875,19.6204008 27.1875,18.84375 C27.1875,18.0670992 26.5579001,17.4375 25.78125,17.4375 C25.0045999,17.4375 24.375,18.0670992 24.375,18.84375 L24.375,18.84375 Z" id="path4129" fill="#25CC00"></path>
                <path d="M11.2658898,9.28089059 C12.4565541,11.3431789 15.0935971,12.0497789 17.1558899,10.8591097 C19.2181827,9.66844772 19.9247764,7.03139923 18.7341107,4.96911097 C17.5434457,2.90681553 14.9064026,2.20022264 12.8441098,3.39089184 C10.781817,4.58155385 10.0752234,7.21859515 11.2658898,9.28089059 L11.2658898,9.28089059 Z" id="path4179" fill="#009999"></path>
                <path d="M16.8897835,16.1716328 C17.6921886,17.5614387 19.4693267,18.037621 20.8591321,17.2352157 C22.2489383,16.4328103 22.7251205,14.6556731 21.9227168,13.2658672 C21.120311,11.8760613 19.3431729,11.399879 17.9533675,12.2022843 C16.563562,13.0046897 16.0873791,14.7818269 16.8897835,16.1716328 L16.8897835,16.1716328 Z" id="path4177" fill="#009999"></path>
                <path d="M21.0011048,20.4842601 C21.3893661,21.1567433 22.2492711,21.3871542 22.9217577,20.998897 C23.5942443,20.6106328 23.8246551,19.7507277 23.4363952,19.0782445 C23.0481346,18.4057543 22.1882289,18.1753435 21.5157423,18.5636077 C20.8432557,18.9518648 20.6128449,19.8117699 21.0011048,20.4842601 L21.0011048,20.4842601 Z" id="path4131" fill="#009999"></path>
                <path d="M4.96911065,18.9216083 C7.03140264,20.1122772 9.66844554,19.4056845 10.8591112,17.3433894 C12.0497762,15.2810943 11.3431825,12.6440535 9.28088982,11.4533917 C7.21859712,10.2627228 4.58155422,10.9693155 3.39088926,13.0316106 C2.20022358,15.0939057 2.90681723,17.7309465 4.96911065,18.9216083 L4.96911065,18.9216083 Z" id="path4185" fill="#0033CC"></path>
                <path d="M13.265867,22.1102157 C14.6556732,22.912621 16.4328113,22.4364387 17.2352164,21.0466328 C18.0376208,19.6568269 17.5614379,17.8796897 16.1716332,17.0772843 C14.7818262,16.274879 13.0046881,16.7510613 12.2022837,18.1408672 C11.3998793,19.5306731 11.8760615,21.3078103 13.265867,22.1102157 L13.265867,22.1102157 Z" id="path4183" fill="#0033CC"></path>
                <path d="M18.8907422,23.6238924 C19.5632295,24.0121564 20.4231343,23.7817457 20.8113949,23.1092559 C21.1996555,22.436773 20.969244,21.5768614 20.2967575,21.1886044 C19.6242709,20.8003475 18.7643654,21.0307511 18.3761048,21.703241 C17.9878449,22.3757309 18.2182557,23.2356355 18.8907422,23.6238924 L18.8907422,23.6238924 Z" id="path4133" fill="#0033CC"></path>
                <path d="M4.3125,30.375 C6.69422762,30.375 8.625,28.4442291 8.625,26.0625 C8.625,23.6807709 6.69422762,21.75 4.31249928,21.75 C1.93077094,21.75 -1.42552636e-13,23.6807709 -1.42552636e-13,26.0625 C-1.42552636e-13,28.4442291 1.93077094,30.375 4.3125,30.375 L4.3125,30.375 Z" id="path4191" fill="#660099"></path>
                <path d="M13.0312496,28.875 C14.636327,28.875 15.9375,27.5738283 15.9375,25.96875 C15.9375,24.3636717 14.636327,23.0625 13.0312496,23.0625 C11.4261723,23.0625 10.125,24.3636717 10.125,25.96875 C10.125,27.5738283 11.4261723,28.875 13.0312496,28.875 L13.0312496,28.875 Z" id="path4189" fill="#660099"></path>
                <path d="M18.65625,27.375 C19.4329008,27.375 20.0625,26.7454008 20.0625,25.96875 C20.0625,25.1920992 19.4329001,24.5625 18.65625,24.5625 C17.8795999,24.5625 17.25,25.1920992 17.25,25.96875 C17.25,26.7454008 17.8795999,27.375 18.65625,27.375 L18.65625,27.375 Z" id="path4135" fill="#660099"></path>
            </g>
        </g>
    </g>
</svg>